<svg xmlns="http://www.w3.org/2000/svg" width="525.333" height="327.999" viewBox="0 0 5472 3417" shape-rendering="geometricPrecision" text-rendering="geometricPrecision" image-rendering="optimizeQuality" fill-rule="evenodd" clip-rule="evenodd"><defs><style>.fil0{fill:none}</style></defs><g id="Layer_x0020_1"><path class="fil0" d="M1746 1948v63c-65-1-144-25-206-17-16 2-33-7-46 3-3 4-3 9-3 17 15 23 9 59 17 89 23 86 35 193 40 289-127-1-238 11-369 11 0-10-1-23 3-29 4-13 17-23 26-31-1-35-2-83 6-120v-57c3-9 16-26 14-37-1-8-12-16-14-23-8-22 0-44-6-69-10-44-20-88-20-137h6c15-7 109 27 137 29 33 1 57 5 86 11 25 5 56 1 74 6 37 9 82 1 117 9 25 5 62-8 83-11l54 6z" id="_171387776"/></g></svg>