<svg id="Layer_1" data-name="Layer 1" xmlns="http://www.w3.org/2000/svg" viewBox="0 0 206.91 689.31"><defs><style>.cls-1{fill:none;fill-rule:evenodd;}</style></defs><title>Tampico</title><path class="cls-1" d="M103,582c10.49,3.3,27.61.74,40,1,20.52.43,45.34.86,64,5,10.26,2.28,21.2-.34,28,5,3.61,5.8,1,22.9,1,31v80c-1.24,1.84-1.09,5.7-1,9a25.08,25.08,0,0,1-8,1c-4.26,2.62-15.81,1-22,1-14.43,0-30.26,1-46,1-7.11,0-17.25-1-19,0-3.45,5.57-1,34.9-1,44l1,113,1,233c0,37.91-4.09,82.92,11,106,8.66,13.25,25.3,27.13,42,32l16,1c7.24,1.59,15.18,3.48,22,5v4c-16.15,9.28-29.16,6.32-50,11-39.45,8.87-114.89,8.25-151-1a14.14,14.14,0,0,1-1-4c12.18-6.81,24.16-5,38-10,21-7.58,41.35-26,50-46l6-21v-31c2.76-12.88,1-31.34,1-46l1-70,6-320c-9.85-3.3-27.21-1.08-39-1-3-1.82-10.31-1-15-1-10.08,0-37.81,0-44-4-2.63-4.2-1-15.85-1-22V632c3.38-5.34,1.11-36,1-45h2c7.53-5.13,35.21-4,48-4C89.51,583,99.32,584.29,103,582Z" transform="translate(-30 -582)"/></svg>